<svg id="Layer_1" data-name="Layer 1" xmlns="http://www.w3.org/2000/svg" viewBox="0 0 400 300" width="406" height="306" class="illustration styles_illustrationTablet__1DWOa"><path d="M203.13,90.71s11.57-7.29,31.49,8.63,25.53-26,47.49-16.27,6.63,25.06,38.29,27.6,34.3,9.13,32.73,33.41-28.11,18.1-21,41.87-14.31,28.88-31.67,27.35-19.4-30.67-42.38-21.72-30.3-10-55,5.87l-48.61-14.34-38.48-20-5.82-42.45,38.93-20Z" fill="#24285b"></path><ellipse cx="196.15" cy="256.41" rx="148.03" ry="11.56" fill="#e6e6e6" opacity="0.45"></ellipse><path d="M89.27,250.88s1,3.23,3.82,3.63,3.45,3.23.84,3.82-9.08-3.07-9.08-3.07l.52-5.23Z" fill="#fcac68"></path><path d="M148.2,250.88s1,3.23,3.82,3.63,3.45,3.23.84,3.82-9.08-3.07-9.08-3.07l.52-5.23Z" fill="#fcac68"></path><path d="M78,183.11l9.19,17.15a32.84,32.84,0,0,1,2.78,24l-7.18,26.95h8.49L103.65,221a37.07,37.07,0,0,0,2.44-19.34l-1.17-8.34a2,2,0,0,1,3.66-1.24L142,251.19h8.71L116,172S105.52,168.81,78,183.11Z" fill="#24285b"></path><path d="M79.86,109.48s22-2.29,27.64,22.73S140.59,172,140.59,172l-40.34-14.66Z" fill="#fcac68"></path><path d="M79.86,109.48s22-2.29,27.64,22.73S140.59,172,140.59,172l-40.34-14.66Z" opacity="0.08"></path><path d="M69.69,88.59a32.09,32.09,0,0,1,.43,8.55,2.59,2.59,0,0,1-3,2.17,5.73,5.73,0,0,1-4.88-3.84l-2-4.33A4.61,4.61,0,0,1,61.85,86C64.53,83.65,69.26,85.47,69.69,88.59Z" fill="#f4a28c"></path><polygon points="60.61 93.77 61.41 110.64 70.68 109.54 66.37 97.71 60.61 93.77" fill="#f4a28c"></polygon><path d="M60,95.18h0a.48.48,0,0,0,.41.43,3.42,3.42,0,0,0,3.69-1.88,4.3,4.3,0,0,0-.47-4.7,20.92,20.92,0,0,0,4.77-.1A4.85,4.85,0,0,0,70,88.46l.94-4s1.73-4.06-.62-4.67-3.17,2.08-5.18.38S62.61,77.84,60.8,79s.49,2.5-2.63,2.78-3.06,1.56-3,3A2.53,2.53,0,0,0,55.93,86,15.76,15.76,0,0,1,60,95.18Z" fill="#24285b"></path><path d="M64.67,93.52s-.23-2-1.7-1.67-1.15,3.15.9,3.21Z" fill="#f4a28c"></path><path d="M70.12,91.81l1.63,1.83A.83.83,0,0,1,71.36,95l-1.92.57Z" fill="#f4a28c"></path><path d="M61.41,110.64l9.27-1.1s23.92-4.62,30.23,19.16a199.56,199.56,0,0,1,6.59,43.61L78,183.11S.61,130.44,61.41,110.64Z" fill="#fcac68"></path><path d="M60.61,122.65S72,152,106,153.32l-3.82,20.92L78,183.11S45,159.61,39.09,139.78Z" opacity="0.08"></path><path d="M203.13,197.45H158.69c-33.27,0-60.34-23.94-60.34-53.37s27.07-53.37,60.34-53.37h44.44v23H158.69c-20.59,0-37.34,13.62-37.34,30.37s16.75,30.37,37.34,30.37h44.44Z" fill="#c9c9c9"></path><rect x="171.57" y="90.71" width="31.56" height="23" fill="#e6e6e6"></rect><rect x="171.57" y="174.45" width="31.56" height="23" fill="#e6e6e6"></rect><path d="M63.82,127.85C57.93,111.6,33,119.38,37.68,136c1.31,4.7,4.55,10.07,10.85,16,25.23,23.84,55,27.91,79.84,15.11l-4.08-6S80.71,169,65.05,132.58A24.35,24.35,0,0,0,63.82,127.85Z" fill="#fcac68"></path><path d="M63.82,127.85C57.93,111.6,33,119.38,37.68,136c1.31,4.7,4.55,10.07,10.85,16,25.23,23.84,55,27.91,79.84,15.11l-4.08-6S80.71,169,65.05,132.58A24.35,24.35,0,0,0,63.82,127.85Z" fill="#fff" opacity="0.46"></path><path d="M125,162.22a4.84,4.84,0,0,1,3.35-3.11c2.52-.51,9.08,4.21,0,8.06Z" fill="#f4a28c"></path><path d="M136.19,168.3s5.57-1.41,5.84,2.95S135.53,173.07,136.19,168.3Z" fill="#f4a28c"></path><circle cx="256.36" cy="96.1" r="9.45" fill="#fcac68"></circle><circle cx="331.28" cy="181.61" r="9.45" fill="#fcac68"></circle><circle cx="240.16" cy="191.61" r="6.66" fill="#fcac68"></circle><circle cx="289.49" cy="122.65" r="3.33" fill="#fcac68"></circle><circle cx="312.43" cy="146.14" r="5.68" fill="#fff"></circle><circle cx="219.37" cy="115.94" r="3.35" fill="#fff"></circle><circle cx="286.14" cy="184.96" r="3.35" fill="#fff"></circle><circle cx="261.15" cy="145.73" r="8.93" fill="#ffd200"></circle><circle cx="338.74" cy="114.45" r="6.28" fill="#ffd200"></circle><circle cx="218.55" cy="160.55" r="3.14" fill="#ffd200"></circle><polygon points="49.48 41.36 49.48 59.73 61.35 59.73 63.94 67.04 67.01 59.73 78.88 59.73 78.88 41.36 49.48 41.36" fill="#e6e6e6"></polygon><path d="M62.7,54.65h0a.94.94,0,0,1-.69-.36l-3.1-4a.92.92,0,0,1,1.45-1.13l2.44,3.14,6-6.5a.92.92,0,1,1,1.34,1.25l-6.75,7.29A.91.91,0,0,1,62.7,54.65Z" opacity="0.12"></path></svg>