<svg id="Layer_1" data-name="Layer 1" xmlns="http://www.w3.org/2000/svg" xmlns:xlink="http://www.w3.org/1999/xlink" viewBox="0 0 346.39 391.41" width="406" height="306" class="illustration styles_illustrationTablet__1DWOa"><defs><linearGradient id="linear-gradient" x1="202.34" y1="273.1" x2="194.63" y2="389.46" gradientUnits="userSpaceOnUse"><stop offset="0.01"></stop><stop offset="0.13" stop-opacity="0.69"></stop><stop offset="1" stop-opacity="0"></stop></linearGradient><linearGradient id="linear-gradient-2" x1="163.84" y1="192.26" x2="390.02" y2="183.09" xlink:href="#linear-gradient"></linearGradient><linearGradient id="linear-gradient-3" x1="243.62" y1="343.55" x2="237.51" y2="176.47" xlink:href="#linear-gradient"></linearGradient><linearGradient id="linear-gradient-4" x1="238" y1="247.16" x2="252.21" y2="361.56" xlink:href="#linear-gradient"></linearGradient><linearGradient id="linear-gradient-5" x1="166.19" y1="67.55" x2="160.46" y2="140.7" xlink:href="#linear-gradient"></linearGradient><linearGradient id="linear-gradient-6" x1="207.33" y1="66.96" x2="201.52" y2="141.02" xlink:href="#linear-gradient"></linearGradient><linearGradient id="linear-gradient-7" x1="200.71" y1="63.34" x2="194.91" y2="137.4" xlink:href="#linear-gradient"></linearGradient><linearGradient id="linear-gradient-8" x1="238.07" y1="63.34" x2="232.26" y2="137.4" xlink:href="#linear-gradient"></linearGradient><linearGradient id="linear-gradient-9" x1="197.95" y1="87.82" x2="205.22" y2="154.7" gradientUnits="userSpaceOnUse"><stop offset="0.02" stop-color="#fff" stop-opacity="0"></stop><stop offset="0.32" stop-color="#fff" stop-opacity="0.39"></stop><stop offset="0.68" stop-color="#fff" stop-opacity="0.68"></stop><stop offset="1" stop-color="#fff"></stop></linearGradient><linearGradient id="linear-gradient-10" x1="178.1" y1="89.98" x2="185.37" y2="156.86" xlink:href="#linear-gradient"></linearGradient><linearGradient id="linear-gradient-11" x1="237.66" y1="83.61" x2="244.93" y2="150.5" xlink:href="#linear-gradient-9"></linearGradient><linearGradient id="linear-gradient-12" x1="256.23" y1="84.2" x2="263.38" y2="150.02" xlink:href="#linear-gradient"></linearGradient><linearGradient id="linear-gradient-13" x1="158.24" y1="92.13" x2="165.51" y2="159.02" xlink:href="#linear-gradient-9"></linearGradient><linearGradient id="linear-gradient-14" x1="217.81" y1="85.66" x2="225.08" y2="152.54" xlink:href="#linear-gradient"></linearGradient><linearGradient id="linear-gradient-15" x1="138.39" y1="94.29" x2="145.66" y2="161.18" xlink:href="#linear-gradient"></linearGradient><linearGradient id="linear-gradient-16" x1="114.33" y1="92.69" x2="161.99" y2="92.69" xlink:href="#linear-gradient-9"></linearGradient><linearGradient id="linear-gradient-17" x1="154.61" y1="92.6" x2="201.03" y2="92.6" xlink:href="#linear-gradient-9"></linearGradient><linearGradient id="linear-gradient-18" x1="194.89" y1="92.6" x2="241.31" y2="92.6" xlink:href="#linear-gradient-9"></linearGradient><linearGradient id="linear-gradient-19" x1="275.79" y1="106.73" x2="223.04" y2="80.92" xlink:href="#linear-gradient"></linearGradient><linearGradient id="linear-gradient-20" x1="183.28" y1="286.3" x2="186.45" y2="339.28" xlink:href="#linear-gradient"></linearGradient><linearGradient id="linear-gradient-21" x1="86.92" y1="162.48" x2="139.49" y2="162.48" xlink:href="#linear-gradient-9"></linearGradient><linearGradient id="linear-gradient-22" x1="60.29" y1="218.29" x2="106.85" y2="218.29" xlink:href="#linear-gradient-9"></linearGradient><linearGradient id="linear-gradient-23" x1="210.37" y1="187.26" x2="227.11" y2="187.26" gradientUnits="userSpaceOnUse"><stop offset="0" stop-color="#e5c5d5"></stop><stop offset="0.42" stop-color="#ead4d1"></stop><stop offset="1" stop-color="#f0e9cb"></stop></linearGradient><linearGradient id="linear-gradient-24" x1="244.36" y1="200.7" x2="259.28" y2="257.47" gradientUnits="userSpaceOnUse"><stop offset="0" stop-opacity="0"></stop><stop offset="0.99"></stop></linearGradient><linearGradient id="linear-gradient-25" x1="991.64" y1="-519.92" x2="1018.26" y2="-519.92" gradientTransform="translate(-487.89 1033.36) rotate(-21.89)" xlink:href="#linear-gradient-23"></linearGradient><linearGradient id="linear-gradient-26" x1="224.44" y1="221.76" x2="238.69" y2="221.76" xlink:href="#linear-gradient-23"></linearGradient><linearGradient id="linear-gradient-27" x1="202.39" y1="208.07" x2="214.32" y2="304.2" xlink:href="#linear-gradient"></linearGradient><linearGradient id="linear-gradient-28" x1="183.39" y1="238.44" x2="150.21" y2="247.2" xlink:href="#linear-gradient"></linearGradient><linearGradient id="linear-gradient-29" x1="206.84" y1="243.16" x2="176.87" y2="251.07" xlink:href="#linear-gradient"></linearGradient><linearGradient id="linear-gradient-30" x1="224.01" y1="236.71" x2="213.68" y2="263.17" xlink:href="#linear-gradient"></linearGradient><linearGradient id="linear-gradient-31" x1="217.94" y1="278.46" x2="207.6" y2="304.92" xlink:href="#linear-gradient"></linearGradient><linearGradient id="linear-gradient-32" x1="246.16" y1="231.72" x2="232.38" y2="267" xlink:href="#linear-gradient"></linearGradient><linearGradient id="linear-gradient-33" x1="237.75" y1="273.15" x2="223.97" y2="308.43" xlink:href="#linear-gradient"></linearGradient></defs><title>Open Store Online</title><path d="M379.1,306.25c-1.27,6.58-2.9,13.21-6.22,19-.31.54-.62,1.07-1,1.58v-.23L43.43,325.7l0,1.42c-1-26.38-7-52.47-7.07-78.88a174.09,174.09,0,0,1,5.9-45.19c3.71-13.88,9.22-27.44,17.75-39,23.28-31.57,64.21-43.33,97.36-64.29,35.27-22.29,47.54-72.33,86.3-87.76C264.1,3.84,288,5.36,307.7,15.14s35.17,27.5,43.15,48c10.22,26.29,8.39,55.45,11.66,83.46C366.63,182,379,216,382,251.44A200.3,200.3,0,0,1,379.1,306.25Z" transform="translate(-36.33 -6.73)" fill="#f68e41" opacity="0.41"></path><path d="M371.92,326.64v.42c-21.64,43.82-72.42,69.06-96.09,69.68l-165.41,1.4c-37.69,0-67.07-31.48-67.07-69.17l0-1.85,0-1.42Z" transform="translate(-36.33 -6.73)" fill="#f68e41" opacity="0.66"></path><path d="M86.61,342.57c-1.94.74-4.3,2.49-3.36,4.34A3.65,3.65,0,0,0,85,348.34c19.76,10.42,42.9,11.72,65.21,12.82l87,4.25c13.83.67,28.29,1.23,40.85-4.58a82.49,82.49,0,0,0,13.55-8.49q9-6.48,17.8-13.13c1.47-1.1,3-2.38,3.33-4.19.33-2.08-1.28-4.08-3.22-4.91a14.56,14.56,0,0,0-6.24-.7q-28.83,1-57.68.81c-12.2-.07-24.44-.28-36.55-1.82-19.72-2.51-38.52-5.2-58.42-2.7C128.81,328.43,107.05,334.72,86.61,342.57Z" transform="translate(-36.33 -6.73)" fill="url(#linear-gradient)"></path><rect x="123.61" y="57.66" width="152.82" height="266.25" rx="18.54" fill="#f68e41"></rect><rect x="123.61" y="57.66" width="152.82" height="266.25" rx="18.54" fill="url(#linear-gradient-2)"></rect><rect x="114.1" y="57.66" width="152.82" height="266.25" rx="18.54" fill="#f68e41"></rect><path d="M291.72,94.87V290.78A14.73,14.73,0,0,1,277,305.51h-99.6a14.72,14.72,0,0,1-14.72-14.73V94.87A12.13,12.13,0,0,1,174.8,82.73H279.58A12.15,12.15,0,0,1,291.72,94.87Z" transform="translate(-36.33 -6.73)" fill="#fff"></path><path d="M291.72,225.71v65.07A14.73,14.73,0,0,1,277,305.51H189.83v-79.8Z" transform="translate(-36.33 -6.73)" fill="#f68e41"></path><path d="M291.71,225.71v65.07A14.74,14.74,0,0,1,277,305.51H189.83v-79.8Z" transform="translate(-36.33 -6.73)" fill="url(#linear-gradient-3)"></path><path d="M291.71,263.24v27.54a14.66,14.66,0,0,1-4.06,10.15H193V263.24Z" transform="translate(-36.33 -6.73)" fill="url(#linear-gradient-4)"></path><polygon points="124.84 76.13 93.73 109.4 231.86 109.4 259.58 75.66 124.84 76.13" fill="#f68e41"></polygon><polygon points="141.9 76 114.03 109.2 232.11 109.32 93.73 109.32 94.57 108.53 105.7 98.1 126.26 75.99 141.9 76" fill="url(#linear-gradient-5)"></polygon><polygon points="182.8 75.52 155.12 109.2 273.2 109.32 134.82 109.32 135.66 108.53 161.99 75.99 182.8 75.52" fill="url(#linear-gradient-6)"></polygon><polygon points="222.42 75.52 194.74 109.2 174.44 109.32 175.28 108.53 201.61 75.99 222.42 75.52" fill="url(#linear-gradient-7)"></polygon><polygon points="259.78 75.52 232.1 109.2 211.8 109.32 212.64 108.53 238.97 75.99 259.78 75.52" fill="url(#linear-gradient-8)"></polygon><path d="M191.12,116.12h19.81a10,10,0,0,1-19.81,0Z" transform="translate(-36.33 -6.73)" fill="#f68e41"></path><path d="M171,116.12h19.81a10,10,0,0,1-19.81,0Z" transform="translate(-36.33 -6.73)" fill="#f68e41"></path><path d="M251.12,116a10,10,0,0,1-19.82.11H251Z" transform="translate(-36.33 -6.73)" fill="#f68e41"></path><path d="M268.34,116c-.48,5-4.16,8.87-8.62,8.87s-8.09-3.83-8.61-8.76h17.16Z" transform="translate(-36.33 -6.73)" fill="#f68e41"></path><path d="M151,116.12h19.81a10,10,0,0,1-19.81,0Z" transform="translate(-36.33 -6.73)" fill="#f68e41"></path><path d="M211.21,116.12H231a10,10,0,0,1-19.81,0Z" transform="translate(-36.33 -6.73)" fill="#f68e41"></path><path d="M130.86,116.12h19.81a10,10,0,0,1-19.81,0Z" transform="translate(-36.33 -6.73)" fill="#f68e41"></path><path d="M191.12,116.12h19.81a10,10,0,0,1-19.81,0Z" transform="translate(-36.33 -6.73)" fill="url(#linear-gradient-9)"></path><path d="M171,116.12h19.81a10,10,0,0,1-19.81,0Z" transform="translate(-36.33 -6.73)" fill="url(#linear-gradient-10)"></path><path d="M251.11,116.12a10,10,0,0,1-19.82.11H251Z" transform="translate(-36.33 -6.73)" fill="url(#linear-gradient-11)"></path><path d="M268.28,116.06c-.47,5-4.14,8.88-8.59,8.88s-8.06-3.84-8.58-8.76h17.1Z" transform="translate(-36.33 -6.73)" fill="url(#linear-gradient-12)"></path><path d="M151,116.12h19.81a10,10,0,0,1-19.81,0Z" transform="translate(-36.33 -6.73)" fill="url(#linear-gradient-13)"></path><path d="M211.21,116.12H231a10,10,0,0,1-19.81,0Z" transform="translate(-36.33 -6.73)" fill="url(#linear-gradient-14)"></path><path d="M130.86,116.12h19.81a10,10,0,0,1-19.81,0Z" transform="translate(-36.33 -6.73)" fill="url(#linear-gradient-15)"></path><polygon points="114.33 109.39 141.71 76.24 161.99 75.99 134.42 109.39 114.33 109.39" fill="url(#linear-gradient-16)"></polygon><polygon points="154.61 109.39 181.99 76.24 201.03 75.81 174.7 109.39 154.61 109.39" fill="url(#linear-gradient-17)"></polygon><polygon points="194.89 109.39 222.26 76.24 241.31 75.81 214.97 109.39 194.89 109.39" fill="url(#linear-gradient-18)"></polygon><polygon points="231.88 109.45 258.44 104.19 259.88 75.52 231.88 109.45" fill="#f68e41"></polygon><polygon points="232.1 109.17 258.66 103.91 260.11 75.24 232.1 109.17" fill="url(#linear-gradient-19)"></polygon><rect x="168.44" y="305.01" width="32.6" height="11.32" rx="5.66" fill="url(#linear-gradient-20)"></rect><circle cx="117.88" cy="162.48" r="26.29" fill="#f68e41"></circle><circle cx="113.21" cy="162.48" r="26.29" fill="url(#linear-gradient-21)"></circle><circle cx="87.71" cy="218.29" r="23.28" fill="#f68e41"></circle><circle cx="83.57" cy="218.29" r="23.28" fill="url(#linear-gradient-22)"></circle><path d="M235.09,196.79c-3.26,3.5-5.15,8-7,12.44l-5.21,12.62a2.26,2.26,0,0,0-.17,1.92,2.18,2.18,0,0,0,1.65.83,79.67,79.67,0,0,0,8,.8q20.29,1.26,40.65.93a11,11,0,0,0,4.76-.81c3.74-1.89,4-7.09,3.37-11.22a59.52,59.52,0,0,0-4-14,15.8,15.8,0,0,0-2.9-4.85c-3.1-3.25-8-3.77-12.51-3.9C253.17,191.34,241.51,189.88,235.09,196.79Z" transform="translate(-36.33 -6.73)" fill="#f68e41"></path><path d="M225.14,193.9a1.89,1.89,0,0,0-2-1.54,21.9,21.9,0,0,0-3.53.13,3.39,3.39,0,0,0-2.06.77,3.35,3.35,0,0,0-.75,1.79c-.95,5.15.15,10.43.57,15.65.29,3.56.32,7.34,2.24,10.34a9.48,9.48,0,0,0,8,4.29c1.34,0,2.86-.49,3.37-1.72a4.18,4.18,0,0,0,.17-1.93C230.46,212.31,229.11,202.52,225.14,193.9Z" transform="translate(-36.33 -6.73)" fill="#f68e41"></path><path d="M224.46,189.31c.63-1.36,1.49-2.6,2.24-3.9a2.69,2.69,0,0,0,.41-1.08,1,1,0,0,0-.52-1c-.75-.29-1.35.75-2.13.91s-1.34-.46-1.85-1a24.61,24.61,0,0,0-7.74-5.21,1.29,1.29,0,0,0-1-.14c-.31.14-.4.69-.08.79a1.43,1.43,0,0,1-.88-.22c-.28-.12-.69-.13-.82.15s.25.69.15,1a2.79,2.79,0,0,1-1-.16c-.34-.06-.79,0-.85.39a1,1,0,0,0,0,.39,9.15,9.15,0,0,1,0,1.57,6.83,6.83,0,0,0,1.67,3.76,57,57,0,0,1,5,7.32,9.29,9.29,0,0,0,1.41,2.32c.82.88,3.86,2.13,4.66.6.38-.72.07-2.3.21-3.14A13.47,13.47,0,0,1,224.46,189.31Z" transform="translate(-36.33 -6.73)" fill="url(#linear-gradient-23)"></path><path d="M265.72,210.43a4.52,4.52,0,0,1-.53,3.8c-.87,1.06-2.39,1.27-3.76,1.34-6.67.35-13.48-.8-20,.72a4,4,0,0,0-2.44,1.26,4.46,4.46,0,0,0-.45,3.25l.56,4.77-6.5-1.18a1.83,1.83,0,0,1-.69-.24,1.68,1.68,0,0,1-.51-1.13,31.72,31.72,0,0,1-.69-7.57,10.66,10.66,0,0,1,2.84-6.89,13.26,13.26,0,0,1,5.8-3c5-1.44,10.26-1.86,15.47-2.28,2.25-.18,6-.68,7.93.85C264.36,205.43,265.32,208.52,265.72,210.43Z" transform="translate(-36.33 -6.73)" fill="url(#linear-gradient-24)"></path><path d="M238.2,176a17.1,17.1,0,0,0,.17,4.9,9.2,9.2,0,0,0,5.53,6.33c2,.79,4.37,1,5.74,2.63s1.3,3.8,2.71,5.16a4.32,4.32,0,0,0,5.27.21,7.46,7.46,0,0,0,2.87-4.77,30.85,30.85,0,0,0,.33-5.69,53.45,53.45,0,0,1,.63-7.58,36.2,36.2,0,0,0,.63-5.29,16.66,16.66,0,0,0-1.17-6c-1.69-4.45-5.17-8.46-9.78-9.64a10.2,10.2,0,0,0-11.16,4.6c-1.16,1.87-1.05,3.77-1.19,6Q238.5,171.41,238.2,176Z" transform="translate(-36.33 -6.73)" fill="url(#linear-gradient-25)"></path><path d="M236.89,150.41c-.83-.34-1.95-.65-2.48.07a1.75,1.75,0,0,0-.25,1,5.48,5.48,0,0,0,1.2,3.49,3.41,3.41,0,0,0-2.31.69c-.93.92-.47,2.54.35,3.55s1.95,1.83,2.44,3c.26.63.32,1.33.57,2a1.81,1.81,0,0,0,1.45,1.28c.9,0,1.47-.9,2-1.65a9.34,9.34,0,0,1,12.63-2.29c3.86,2.74,4.93,7.91,5.7,12.58.39.28.62-.47.77-.92.34-1,1.9-.91,2.46-.06a2.76,2.76,0,0,1-.22,2.88c-.54.86-1.33,1.54-1.92,2.37a1,1,0,0,0-.25.71,1,1,0,0,0,.35.55A16.35,16.35,0,0,0,260.9,181a1.92,1.92,0,0,0,1.5.56,1.79,1.79,0,0,0,.94-.65c2-2.24,2.78-5.35,3.21-8.34s.4-6.36-1.92-8.16c-.46-.35-1-.61-1.42-1a9.17,9.17,0,0,1-1.82-2.56,21.6,21.6,0,0,0-10.91-9.16,11.27,11.27,0,0,0-6.6-.92A10.45,10.45,0,0,1,236.89,150.41Z" transform="translate(-36.33 -6.73)" fill="#b7a451"></path><path d="M224.9,223.67c-.35.44-.67,1.11-.28,1.51a1.25,1.25,0,0,0,.95.21l11.94-.71a1.59,1.59,0,0,0,.57-.1c.6-.27.64-1.08.6-1.74l-.21-3.08c-.07-1.11.16-1.45-.92-1.6a13.27,13.27,0,0,0-4.79.67A15.41,15.41,0,0,0,224.9,223.67Z" transform="translate(-36.33 -6.73)" fill="url(#linear-gradient-26)"></path><rect x="156.63" y="222.56" width="98.75" height="29.28" fill="url(#linear-gradient-27)"></rect><polygon points="128.04 177.63 102.81 177.63 107.09 154.81 124.38 154.81 128.04 177.63" fill="#fff"></polygon><path d="M157.76,163.56H146.94v-1a5.41,5.41,0,1,1,10.82,0ZM149,161.61h6.66a3.47,3.47,0,0,0-6.66,0Z" transform="translate(-36.33 -6.73)" fill="#fff"></path><rect x="163.56" y="230.9" width="18.93" height="20.56" fill="#f68e41"></rect><rect x="163.56" y="230.9" width="18.93" height="20.56" fill="url(#linear-gradient-28)"></rect><rect x="188.01" y="239.81" width="18.93" height="11.65" fill="url(#linear-gradient-29)"></rect><rect x="160.87" y="230.9" width="18.93" height="20.56" fill="#f68e41"></rect><rect x="188.4" y="240.98" width="14.71" height="10.71" fill="#f68e41"></rect><rect x="163.14" y="272.47" width="18.93" height="20.56" fill="#f68e41"></rect><rect x="187.98" y="282.55" width="14.71" height="10.71" fill="#f68e41"></rect><circle cx="220.76" cy="245.03" r="6.66" fill="url(#linear-gradient-30)"></circle><circle cx="218.31" cy="245.03" r="6.66" fill="#f68e41"></circle><circle cx="214.69" cy="286.78" r="6.66" fill="url(#linear-gradient-31)"></circle><circle cx="212.23" cy="286.78" r="6.66" fill="#f68e41"></circle><circle cx="241.83" cy="242.81" r="8.88" fill="url(#linear-gradient-32)"></circle><circle cx="238.56" cy="242.81" r="8.88" fill="#f68e41"></circle><circle cx="233.42" cy="284.25" r="8.88" fill="url(#linear-gradient-33)"></circle><circle cx="230.15" cy="284.25" r="8.88" fill="#f68e41"></circle><path d="M121.17,220.69c0,4.94-2.59,7.38-5.62,7.38s-5.43-2.34-5.47-7,2.56-7.31,5.65-7.31C119,213.71,121.17,216.23,121.17,220.69Zm-8.57.22c-.07,3,1.05,5.26,3,5.26s3-2.24,3-5.33c0-2.85-.83-5.22-3-5.22C113.65,215.62,112.6,218,112.6,220.91Zm2.74,17,13.75-24.19h2L117.35,237.9Zm21.06-7.52c0,4.93-2.6,7.38-5.58,7.38s-5.44-2.34-5.47-7,2.55-7.34,5.65-7.34C134.27,223.4,136.4,225.91,136.4,230.38Zm-8.57.21c0,3,1.12,5.26,3.06,5.26,2.09,0,3-2.23,3-5.33,0-2.84-.83-5.22-3-5.22C128.91,225.3,127.83,227.64,127.83,230.59Z" transform="translate(-36.33 -6.73)" fill="#fff"></path></svg>